<svg fill="none" xmlns="http://www.w3.org/2000/svg" viewBox="0 0 256 256">
  <path fill-rule="evenodd" clip-rule="evenodd" d="M243.81 12.1905H12.1905V243.81H243.81V12.1905ZM0 0v256h256V0H0Z" fill="#312A4E"/>
  <path d="m65.6718 218.218-1.4628-66.925h13.5314c3.6572 17.554 9.021 30.476 16.0914 38.765 7.0702 8.046 17.3102 12.069 30.7202 12.069 8.777 0 15.969-1.707 21.577-5.12 5.608-3.657 8.411-9.265 8.411-16.823 0-4.632-1.097-8.655-3.291-12.069-2.194-3.413-6.217-7.07-12.069-10.971-5.851-3.901-14.506-8.533-25.965-13.897-10.728-5.364-19.7489-10.484-27.0632-15.36-7.0704-5.12-12.4342-10.972-16.0914-17.554-3.6571-6.583-5.4857-14.9947-5.4857-25.2347 0-15.1162 5.4857-26.941 16.4571-35.4743 10.9715-8.5334 25.4782-12.8 43.5202-12.8 10.24 0 18.529 1.4628 24.868 4.3885 6.583 2.682 11.825 4.9981 15.726 6.9486h.732l5.851-8.4114h12.069l1.097 58.1486h-13.532c-4.632-17.5543-10.484-29.501-17.554-35.84-7.07-6.5829-15.848-9.8743-26.331-9.8743-8.29 0-14.751 1.9504-19.383 5.8514-4.633 3.901-6.949 9.021-6.949 15.36 0 7.5581 3.413 13.5314 10.24 17.92 7.071 4.3886 17.433 10.1186 31.086 17.1886 10.727 5.12 19.992 10.362 27.794 15.726 8.046 5.12 14.263 11.093 18.652 17.92 4.388 6.583 6.582 14.994 6.582 25.234 0 12.922-3.291 23.162-9.874 30.72-6.339 7.314-14.628 12.556-24.868 15.726-10.24 3.169-21.456 4.754-33.646 4.754-10.728 0-19.261-1.097-25.6-3.291-6.0954-2.195-11.5811-4.511-16.4573-6.949h-1.4629l-7.68 9.874h-10.24Z" fill="#312A4E"/>
</svg>
