<svg
  xmlns="http://www.w3.org/2000/svg"
>
  <symbol id="logo">
    <path
      fill="currentColor"
      d="M6.14003 5.73978 10.2464 18.6097h.1565l4.1063-12.86992h6.1401L14.0399 23.993H6.60933L0 5.73978h6.14003ZM22.5778 23.993V5.73978h14.431v3.99289h-8.9949v3.13723h8.2519v3.9929h-8.2519v3.1373h8.9558v3.9929H22.5778Zm4.1846-19.85751c-.6648 0-1.2286-.20202-1.6914-.60606-.4628-.40404-.6942-.89127-.6942-1.46168 0-.57042.2314-1.05764.6942-1.461686C25.5338.202021 26.0976 0 26.7624 0c.6453 0 1.1961.202021 1.6524.606064.4627.404046.6941.891266.6941 1.461686 0 .57041-.2314 1.05764-.6941 1.46168-.4563.40404-1.0071.60606-1.6524.60606Zm6.2183 0c-.6649 0-1.2287-.20202-1.6915-.60606-.4628-.40404-.6942-.89127-.6942-1.46168 0-.57042.2314-1.05764.6942-1.461686C31.752.202021 32.3158 0 32.9807 0c.6453 0 1.196.202021 1.6523.606064.4628.404046.6942.891266.6942 1.461686 0 .57041-.2314 1.05764-.6942 1.46168-.4563.40404-1.007.60606-1.6523.60606ZM39.7049 23.993V5.73978h8.643c1.4861 0 2.7864.24658 3.901.73975 1.1146.49317 1.9815 1.20322 2.6007 2.13014.6192.92692.9289 2.03803.9289 3.33333 0 1.3072-.3194 2.4094-.9582 3.3066-.6323.8972-1.522 1.5746-2.6692 2.0321-1.1406.4575-2.4736.6863-3.9988.6863H42.99v-3.8503h4.0673c.6387 0 1.183-.0713 1.6327-.2139.4563-.1485.805-.3832 1.0462-.7041.2477-.3208.3715-.7397.3715-1.2567 0-.5229-.1238-.9477-.3715-1.2745-.2412-.3327-.5899-.5764-1.0462-.73084-.4497-.16043-.994-.24064-1.6327-.24064H45.141V23.993h-5.4361Zm11.7325-8.3779 5.0059 8.3779h-5.9054l-4.8885-8.3779h5.788ZM68.8896 11.4439c-.0522-.5942-.2966-1.0576-.7333-1.3904-.4302-.33271-1.0853-.49909-1.9652-.49909-.5606 0-1.0201.06239-1.3786.18717-.352.11884-.6127.28222-.7822.49022-.1694.2079-.2574.4456-.2639.713-.0131.2198.0293.4189.1271.5971.1043.1724.2672.3298.4888.4724.2216.1367.5052.2615.8506.3744.3455.1128.7561.2139 1.2319.303l1.6426.3208c1.1081.2139 2.0565.4962 2.8451.8468.7887.3505 1.434.7635 1.9359 1.2388.5019.4694.8702.9982 1.1048 1.5865.2412.5882.365 1.2299.3716 1.9251-.0066 1.2003-.3357 2.2163-.9875 3.0482-.6518.8318-1.5839 1.4646-2.7963 1.8984-1.2058.4337-2.6561.6506-4.3508.6506-1.7403 0-3.259-.2347-4.5561-.7041-1.2906-.4694-2.2944-1.1913-3.0114-2.1658-.7105-.9804-1.069-2.2341-1.0755-3.7612h5.1623c.0326.5586.1858 1.028.4596 1.4083.2737.3802.6583.6684 1.1537.8645.5019.1961 1.0983.2941 1.7892.2941.5801 0 1.0657-.0654 1.4568-.1961.3911-.1307.6876-.3119.8897-.5436.2021-.2318.3063-.4962.3129-.7933-.0066-.2792-.1076-.5229-.3031-.7308-.1891-.2139-.5019-.4041-.9386-.5704-.4368-.1723-1.0266-.3328-1.7697-.4813l-1.9945-.3922c-1.7729-.3505-3.1711-.9358-4.1944-1.7558-1.0168-.8259-1.522-1.9519-1.5155-3.3779-.0065-1.1586.3325-2.17172 1.0169-3.03923.6909-.87344 1.6458-1.55378 2.8646-2.041 1.2254-.48723 2.6301-.73085 4.214-.73085 1.6165 0 3.0146.24659 4.1944.73976 1.1797.49317 2.089 1.18836 2.7278 2.08557.6453.89127.9712 1.93405.9777 3.12835h-5.2014ZM75.8851 9.73267V5.73978h17.4033v3.99289h-6.0227V23.993h-5.3579V9.73267h-6.0227ZM95.3342 23.993V5.73978h5.4358v7.37972h.274l6.023-7.37972h6.335l-6.765 8.12842 6.922 10.1248h-6.492l-4.498-6.845-1.799 2.1391v4.7059h-5.4358ZM120.217 23.993h-5.866l6.609-18.25322h7.431L135 23.993h-5.866l-4.38-13.2265h-.157l-4.38 13.2265Zm-1.095-7.2015h11.029v3.7077h-11.029v-3.7077Z"
    />
  </symbol>
</svg>
